<?xml version="1.0"?>
<svg xmlns="http://www.w3.org/2000/svg" id="Capa_1" enable-background="new 0 0 512.001 512.001" height="512px" viewBox="0 0 512.001 512.001" width="512px" class=""><g><g><path d="m201.698 77.338c-14.524 10.54-34.329 15.663-60.547 15.663h-5.151c-5.522 0-10 4.477-10 10v150c0 5.523 4.478 10 10 10h5.15c30.587 0 54.233-6.371 72.292-19.476 5.637-4.088 13.351-5.095 20.135-2.627 3.733 1.358 10.351 5.052 12.722 14.53.001.003.002.006.003.01 1.107 4.383 5.069 7.539 9.64 7.562.022 0 .044.004.066.004 4.53 0 8.582-3.132 9.693-7.575 2.371-9.478 8.988-13.171 12.722-14.53 6.785-2.47 14.498-1.462 20.134 2.626 18.06 13.106 41.706 19.477 72.293 19.477h5.15c5.522 0 10-4.477 10-10v-150c0-5.523-4.478-10-10-10h-5.15c-26.218 0-46.022-5.124-60.547-15.664-10.94-7.938-25.778-9.942-38.718-5.233-6.085 2.213-11.358 5.761-15.585 10.326-4.226-4.565-9.5-8.113-15.585-10.328-12.942-4.709-27.779-2.703-38.717 5.235zm76.725 13.56c6.785-2.47 14.498-1.462 20.134 2.626 17.093 12.405 39.193 18.776 67.443 19.422v129.994c-23.827-.603-42.083-5.723-55.697-15.604-10.94-7.938-25.778-9.942-38.718-5.233-1.95.71-3.807 1.571-5.585 2.542v-120.254c2.582-8.701 8.832-12.186 12.423-13.493zm-32.423 13.439v120.287c-1.774-.969-3.639-1.812-5.585-2.521-12.942-4.709-27.779-2.704-38.718 5.234-13.614 9.879-31.87 15-55.697 15.603v-129.994c28.25-.646 50.351-7.018 67.442-19.421 5.637-4.088 13.351-5.095 20.135-2.627 3.587 1.305 9.835 4.766 12.423 13.439z" data-original="#000000" class="active-path" data-old_color="#000000" fill="#95329A"/><path d="m226 303.001c-5.522 0-10 4.477-10 10s4.478 10 10 10h60c5.522 0 10-4.477 10-10s-4.478-10-10-10z" data-original="#000000" class="active-path" data-old_color="#000000" fill="#95329A"/><circle cx="256" cy="10" r="10" data-original="#000000" class="active-path" data-old_color="#000000" fill="#95329A"/><path d="m482 .001h-181c-5.522 0-10 4.477-10 10s4.478 10 10 10h181c5.514 0 10 4.486 10 10v326c0 5.514-4.486 10-10 10h-452c-5.514 0-10-4.486-10-10v-326c0-5.514 4.486-10 10-10h181c5.522 0 10-4.477 10-10s-4.478-10-10-10h-181c-16.542 0-30 13.458-30 30v326c0 16.542 13.458 30 30 30h183.339l-25.238 106h-52.101c-5.522 0-10 4.477-10 10s4.478 10 10 10h240c5.522 0 10-4.477 10-10s-4.478-10-10-10h-52.1l-25.238-106h183.338c16.542 0 30-13.458 30-30v-326c0-16.542-13.458-30-30-30zm-178.661 492h-94.678l25.238-106h44.202z" data-original="#000000" class="active-path" data-old_color="#000000" fill="#95329A"/></g></g> </svg>
